<svg width="40" height="40" viewBox="0 0 40 40" fill="none" xmlns="http://www.w3.org/2000/svg">
<path d="M16.9567 33.4767H5.71667C5.25428 33.4765 4.80006 33.3547 4.39965 33.1235C3.99924 32.8922 3.66673 32.5597 3.43552 32.1592C3.20432 31.7588 3.08255 31.3046 3.08246 30.8422C3.08237 30.3798 3.20395 29.9255 3.435 29.525L8.44833 21.01" stroke="#05030F" stroke-width="1.5" stroke-linecap="round" stroke-linejoin="round"/>
<path d="M31.5517 17.6667L38.3933 29.5267C38.6244 29.9272 38.746 30.3815 38.7459 30.8438C38.7458 31.3062 38.624 31.7605 38.3928 32.1609C38.1616 32.5613 37.8291 32.8939 37.4287 33.1251C37.0283 33.3564 36.5741 33.4782 36.1117 33.4783H24.8667" stroke="#05030F" stroke-width="1.5" stroke-linecap="round" stroke-linejoin="round"/>
<path d="M11.795 15.035L18.6283 3.18335C18.8599 2.78296 19.1927 2.45051 19.5933 2.21939C19.9939 1.98827 20.4483 1.86661 20.9108 1.86661C21.3734 1.86661 21.8277 1.98827 22.2284 2.21939C22.629 2.45051 22.9618 2.78296 23.1933 3.18335L28.1083 11.695" stroke="#05030F" stroke-width="1.5" stroke-linecap="round" stroke-linejoin="round"/>
<path d="M30.135 28.2083L24.8667 33.4767L30.135 38.745" stroke="#05030F" stroke-width="1.5" stroke-linecap="round" stroke-linejoin="round"/>
<path d="M30.04 4.49667L28.1117 11.695L20.915 9.76667" stroke="#05030F" stroke-width="1.5" stroke-linecap="round" stroke-linejoin="round"/>
<path d="M1.25 22.9383L8.44833 21.01L10.3767 28.2083" stroke="#05030F" stroke-width="1.5" stroke-linecap="round" stroke-linejoin="round"/>
</svg>
