<svg width="18" height="18" viewBox="0 0 18 18" fill="none" xmlns="http://www.w3.org/2000/svg">
<path fill-rule="evenodd" clip-rule="evenodd" d="M4.71977 4.71975C4.86042 4.57915 5.05115 4.50016 5.25002 4.50016C5.4489 4.50016 5.63963 4.57915 5.78027 4.71975L9.00002 7.9395L12.2198 4.71975C12.289 4.64812 12.3717 4.59098 12.4632 4.55167C12.5547 4.51237 12.6531 4.49168 12.7527 4.49081C12.8523 4.48995 12.9511 4.50892 13.0432 4.54663C13.1354 4.58434 13.2191 4.64003 13.2896 4.71045C13.36 4.78087 13.4157 4.86461 13.4534 4.95678C13.4911 5.04896 13.5101 5.14772 13.5092 5.2473C13.5083 5.34689 13.4877 5.4453 13.4483 5.5368C13.409 5.62831 13.3519 5.71106 13.2803 5.78025L9.53027 9.53025C9.38963 9.67085 9.1989 9.74984 9.00002 9.74984C8.80115 9.74984 8.61042 9.67085 8.46977 9.53025L4.71977 5.78025C4.57917 5.6396 4.50018 5.44887 4.50018 5.25C4.50018 5.05113 4.57917 4.8604 4.71977 4.71975ZM4.71977 9.21975C4.86042 9.07915 5.05115 9.00016 5.25002 9.00016C5.4489 9.00016 5.63963 9.07915 5.78027 9.21975L9.00002 12.4395L12.2198 9.21975C12.3612 9.08313 12.5507 9.00754 12.7473 9.00924C12.944 9.01095 13.1321 9.08983 13.2711 9.22889C13.4102 9.36794 13.4891 9.55605 13.4908 9.7527C13.4925 9.94935 13.4169 10.1388 13.2803 10.2802L9.53027 14.0303C9.38963 14.1709 9.1989 14.2498 9.00002 14.2498C8.80115 14.2498 8.61042 14.1709 8.46977 14.0303L4.71977 10.2802C4.57917 10.1396 4.50018 9.94887 4.50018 9.75C4.50018 9.55113 4.57917 9.3604 4.71977 9.21975Z" fill="#05030F"/>
</svg>
