<svg width="40" height="40" viewBox="0 0 40 40" fill="none" xmlns="http://www.w3.org/2000/svg">
<path d="M20 20C23.1217 20 25.95 21.0333 28.025 22.4783C29.9967 23.8533 31.6667 25.8967 31.6667 28.095C31.6667 29.3017 31.1517 30.3017 30.34 31.045C29.5767 31.7467 28.58 32.2017 27.5533 32.5117C25.5017 33.1333 22.8 33.3333 20 33.3333C17.2 33.3333 14.4983 33.1333 12.4467 32.5117C11.42 32.2017 10.4233 31.7467 9.65832 31.045C8.84999 30.3033 8.33332 29.3033 8.33332 28.0967C8.33332 25.8983 10.0033 23.855 11.975 22.48C14.05 21.0333 16.8783 20 20 20ZM31.6667 21.6667C33.4067 21.6667 34.9867 22.2417 36.155 23.055C37.2217 23.8 38.3333 25.0383 38.3333 26.5483C38.3333 27.41 37.9583 28.125 37.4 28.6367C36.89 29.105 36.26 29.38 35.685 29.5533C34.9017 29.79 33.9767 29.9117 33.0167 29.965C33.22 29.39 33.3333 28.765 33.3333 28.095C33.3333 25.5367 31.735 23.3633 29.9467 21.855C30.5115 21.7302 31.0882 21.6671 31.6667 21.6667ZM8.33332 21.6667C8.92999 21.6689 9.50332 21.7317 10.0533 21.855C8.26666 23.3633 6.66666 25.5367 6.66666 28.095C6.66666 28.765 6.77999 29.39 6.98332 29.965C6.02332 29.9117 5.09999 29.79 4.31499 29.5533C3.73999 29.38 3.10999 29.105 2.59832 28.6367C2.30503 28.3739 2.07046 28.0523 1.90992 27.6927C1.74939 27.3331 1.66649 26.9438 1.66666 26.55C1.66666 25.0417 2.77666 23.8017 3.84499 23.0567C5.16642 22.1508 6.73118 21.6662 8.33332 21.6667ZM30.8333 11.6667C31.9384 11.6667 32.9982 12.1057 33.7796 12.8871C34.561 13.6685 35 14.7283 35 15.8333C35 16.9384 34.561 17.9982 33.7796 18.7796C32.9982 19.561 31.9384 20 30.8333 20C29.7283 20 28.6684 19.561 27.887 18.7796C27.1056 17.9982 26.6667 16.9384 26.6667 15.8333C26.6667 14.7283 27.1056 13.6685 27.887 12.8871C28.6684 12.1057 29.7283 11.6667 30.8333 11.6667ZM9.16666 11.6667C10.2717 11.6667 11.3315 12.1057 12.1129 12.8871C12.8943 13.6685 13.3333 14.7283 13.3333 15.8333C13.3333 16.9384 12.8943 17.9982 12.1129 18.7796C11.3315 19.561 10.2717 20 9.16666 20C8.06159 20 7.00178 19.561 6.22038 18.7796C5.43898 17.9982 4.99999 16.9384 4.99999 15.8333C4.99999 14.7283 5.43898 13.6685 6.22038 12.8871C7.00178 12.1057 8.06159 11.6667 9.16666 11.6667ZM20 5C21.7681 5 23.4638 5.70238 24.714 6.95262C25.9643 8.20286 26.6667 9.89856 26.6667 11.6667C26.6667 13.4348 25.9643 15.1305 24.714 16.3807C23.4638 17.631 21.7681 18.3333 20 18.3333C18.2319 18.3333 16.5362 17.631 15.2859 16.3807C14.0357 15.1305 13.3333 13.4348 13.3333 11.6667C13.3333 9.89856 14.0357 8.20286 15.2859 6.95262C16.5362 5.70238 18.2319 5 20 5Z" fill="#05030F"/>
</svg>
