<svg width="73" height="35" viewBox="0 0 73 35" fill="none" xmlns="http://www.w3.org/2000/svg">
<path d="M0.863281 35V0.625H10.1797C12.6797 0.625 14.4961 1.23698 15.6289 2.46094C16.7747 3.67188 17.3477 5.67708 17.3477 8.47656V9.98047C17.3477 11.5951 17.0547 12.9036 16.4688 13.9062C15.8958 14.9089 15.0169 15.5664 13.832 15.8789C15.3815 16.2695 16.4167 17.1875 16.9375 18.6328C17.4714 20.0651 17.7383 21.8164 17.7383 23.8867C17.7383 26.1133 17.5299 28.0599 17.1133 29.7266C16.6966 31.3932 15.9414 32.6888 14.8477 33.6133C13.7539 34.5378 12.1979 35 10.1797 35H0.863281ZM7.58203 13.5742H8.98828C9.6263 13.5742 10.0365 13.3268 10.2188 12.832C10.401 12.3372 10.4922 11.7448 10.4922 11.0547V7.59766C10.4922 6.49089 10.0039 5.9375 9.02734 5.9375H7.58203V13.5742ZM8.26562 28.9453C10.0495 28.9453 10.9414 28.099 10.9414 26.4062V22.1094C10.9414 21.1328 10.7917 20.3646 10.4922 19.8047C10.2057 19.2318 9.65885 18.9453 8.85156 18.9453H7.58203V28.9062C7.86849 28.9323 8.09635 28.9453 8.26562 28.9453ZM20.0039 35V0.625H29.0859C30.987 0.625 32.4909 1.04818 33.5977 1.89453C34.7174 2.74089 35.5182 3.94531 36 5.50781C36.4818 7.07031 36.7227 8.93229 36.7227 11.0938C36.7227 13.1771 36.5208 14.9935 36.1172 16.543C35.7135 18.0794 34.9909 19.2708 33.9492 20.1172C32.9206 20.9635 31.4557 21.3867 29.5547 21.3867H26.7617V35H20.0039ZM26.7617 15.2148H27.1523C28.4284 15.2148 29.2096 14.8568 29.4961 14.1406C29.7826 13.4245 29.9258 12.3698 29.9258 10.9766C29.9258 9.67448 29.7826 8.67188 29.4961 7.96875C29.2227 7.2526 28.5651 6.89453 27.5234 6.89453H26.7617V15.2148ZM37.9141 35L41.6055 16.7773L38.6758 0.605469H45.3945L47.1719 12.4219L48.7539 0.605469H55.4922L52.5625 16.7773L56.2344 35H49.2812L47.1133 21.5625L44.8867 35H37.9141ZM58.2852 35V0.625H65.1602V29.1406H72.2305V35H58.2852Z" fill="#27187E"/>
</svg>
