<svg width="108" height="52" viewBox="0 0 108 52" fill="none" xmlns="http://www.w3.org/2000/svg">
<path d="M0.294922 52V0.4375H14.2695C18.0195 0.4375 20.7441 1.35547 22.4434 3.19141C24.1621 5.00781 25.0215 8.01562 25.0215 12.2148V14.4707C25.0215 16.8926 24.582 18.8555 23.7031 20.3594C22.8438 21.8633 21.5254 22.8496 19.748 23.3184C22.0723 23.9043 23.625 25.2812 24.4062 27.4492C25.207 29.5977 25.6074 32.2246 25.6074 35.3301C25.6074 38.6699 25.2949 41.5898 24.6699 44.0898C24.0449 46.5898 22.9121 48.5332 21.2715 49.9199C19.6309 51.3066 17.2969 52 14.2695 52H0.294922ZM10.373 19.8613H12.4824C13.4395 19.8613 14.0547 19.4902 14.3281 18.748C14.6016 18.0059 14.7383 17.1172 14.7383 16.082V10.8965C14.7383 9.23633 14.0059 8.40625 12.541 8.40625H10.373V19.8613ZM11.3984 42.918C14.0742 42.918 15.4121 41.6484 15.4121 39.1094V32.6641C15.4121 31.1992 15.1875 30.0469 14.7383 29.207C14.3086 28.3477 13.4883 27.918 12.2773 27.918H10.373V42.8594C10.8027 42.8984 11.1445 42.918 11.3984 42.918ZM29.0059 52V0.4375H42.6289C45.4805 0.4375 47.7363 1.07227 49.3965 2.3418C51.0762 3.61133 52.2773 5.41797 53 7.76172C53.7227 10.1055 54.084 12.8984 54.084 16.1406C54.084 19.2656 53.7812 21.9902 53.1758 24.3145C52.5703 26.6191 51.4863 28.4062 49.9238 29.6758C48.3809 30.9453 46.1836 31.5801 43.332 31.5801H39.1426V52H29.0059ZM39.1426 22.3223H39.7285C41.6426 22.3223 42.8145 21.7852 43.2441 20.7109C43.6738 19.6367 43.8887 18.0547 43.8887 15.9648C43.8887 14.0117 43.6738 12.5078 43.2441 11.4531C42.834 10.3789 41.8477 9.8418 40.2852 9.8418H39.1426V22.3223ZM55.8711 52L61.4082 24.666L57.0137 0.408203H67.0918L69.7578 18.1328L72.1309 0.408203H82.2383L77.8438 24.666L83.3516 52H72.9219L69.6699 31.8438L66.3301 52H55.8711ZM86.4277 52V0.4375H96.7402V43.2109H107.346V52H86.4277Z" fill="white"/>
</svg>
