<svg width="1776" height="588" viewBox="0 0 1776 588" fill="none" xmlns="http://www.w3.org/2000/svg">
<g opacity="0.06">
<path d="M1760.88 238.389C1722.42 204.265 1641.19 64.1514 1576.3 74.5948C1511.41 85.0382 1513.91 275.668 1449.39 288.517C1384.86 301.366 1333.67 140.258 1266.57 136.269C1199.48 132.28 1192.11 258.239 1127.32 269.37C1062.53 280.5 1018.96 169.287 955.587 189.696C892.215 210.105 886.509 346.922 823.137 367.331C759.765 387.74 717.239 283.399 651.401 287.657C585.564 291.915 572.166 378.357 507.115 387.77C442.064 397.182 402.949 315.178 339.157 332.837C275.365 350.497 267.172 471.027 200.914 472.536C134.657 474.045 58.5778 367.675 21.1208 340.081" stroke="url(#paint0_linear_115_4)" stroke-width="6.69459" stroke-linecap="round"/>
<path d="M1732.24 272.544C1697.53 238.177 1628.94 99.9594 1565.63 107.585C1502.33 115.211 1491.49 299.188 1428.37 309.147C1365.25 319.107 1327.09 161.771 1262.66 155.392C1198.23 149.014 1182.37 270.236 1119.12 278.529C1055.87 286.821 1021.58 177.902 959.045 195.197C896.513 212.493 881.498 344.252 818.966 361.548C756.434 378.843 722.679 276.592 658.892 278.216C595.105 279.84 576.175 362.716 512.788 369.342C449.402 375.967 417.382 295.39 354.637 310.018C291.891 324.646 275.61 440.6 211.609 439.557C147.608 438.513 81.6368 333.039 47.4336 305.008" stroke="url(#paint1_linear_115_4)" stroke-width="6.69459" stroke-linecap="round"/>
<path d="M1719.88 331.761C1688.84 297.309 1614.5 134.772 1552.94 139.776C1491.38 144.78 1467.99 321.902 1406.45 329.166C1344.9 336.429 1319.18 183.191 1257.53 174.639C1195.88 166.088 1172.06 282.47 1110.5 288.119C1048.95 293.769 1023.56 187.393 962.068 201.757C900.575 216.12 876.829 342.701 815.336 357.064C753.842 371.428 728.5 271.507 666.9 270.702C605.3 269.896 581.221 349.163 519.655 353.198C458.089 357.234 432.895 278.292 371.384 290.073C309.872 301.855 286.018 413.137 224.4 409.75C162.782 406.363 106.613 302.134 75.6158 273.814" stroke="url(#paint2_linear_115_4)" stroke-width="6.69459" stroke-linecap="round"/>
<path d="M1711.85 410.504C1684.44 376.03 1597.51 168.596 1537.9 171.201C1478.28 173.806 1443.08 344.39 1383.32 349.182C1323.56 353.974 1309.77 204.722 1251.03 194.203C1192.29 183.684 1161.03 295.463 1101.37 298.693C1041.71 301.922 1024.89 198.04 964.666 209.706C904.442 221.372 872.522 343.024 812.298 354.691C752.074 366.357 734.832 268.723 675.591 265.704C616.35 262.684 587.496 338.53 527.941 340.197C468.387 341.865 449.785 264.541 389.729 273.708C329.672 282.874 298.743 389.716 239.67 384.197C180.596 378.677 133.987 275.753 106.176 247.215" stroke="url(#paint3_linear_115_4)" stroke-width="6.69459" stroke-linecap="round"/>
<path d="M1681.62 466.01C1638.94 408.218 1578.51 201.728 1520.96 202.051C1463.41 202.373 1417.41 363.869 1359.56 366.273C1301.71 368.677 1299.07 225.758 1243.3 213.59C1187.52 201.421 1149.49 306.947 1091.86 307.864C1034.22 308.781 1025.43 209.044 966.649 217.991C907.87 226.938 868.501 341.862 809.722 350.809C750.944 359.755 741.3 265.966 684.513 260.935C627.725 255.904 594.565 327.23 537.142 326.66C479.719 326.09 467.322 251.632 408.882 258.199C350.443 264.767 313.081 365.594 256.632 358.184C200.183 350.774 162.658 250.871 137.928 222.63" stroke="url(#paint4_linear_115_4)" stroke-width="6.69459" stroke-linecap="round"/>
<path d="M1657.82 540.382C1588.49 434.029 1551.51 231.639 1496.71 229.986C1441.91 228.332 1386.19 382.629 1330.95 382.975C1275.72 383.321 1283.75 245.293 1231.57 231.645C1179.38 217.998 1135.39 318.547 1080.46 317.465C1025.53 316.383 1024.53 219.823 967.92 226.451C911.312 233.08 865.35 342.654 808.742 349.283C752.134 355.911 749.882 265.063 696.201 258.269C642.52 251.475 605.689 319.183 551.074 316.673C496.459 314.163 490.159 241.877 434.049 246.221C377.939 250.565 334.929 346.602 281.747 337.524C228.564 328.445 200.225 230.744 178.772 202.644" stroke="url(#paint5_linear_115_4)" stroke-width="6.69459" stroke-linecap="round"/>
<path d="M1596.97 523.938C1564.61 480.712 1527.94 258.978 1475.46 255.321C1422.98 251.663 1358.96 394.82 1305.92 393.028C1252.89 391.237 1270.05 261.572 1220.9 246.72C1171.75 231.868 1122.65 324.864 1070.02 321.739C1017.38 318.615 1023.02 227.65 968.241 231.722C913.463 235.794 861.861 337.212 807.083 341.284C752.305 345.356 756.358 259.722 705.307 251.267C654.257 242.811 614.28 305.156 562.04 300.699C509.8 296.242 508.698 227.933 454.554 229.872C400.411 231.812 352.567 320.596 302.151 310.009C251.735 299.421 231.222 206.335 212.556 179.052" stroke="url(#paint6_linear_115_4)" stroke-width="6.69459" stroke-linecap="round"/>
<path d="M1546.1 517.506C1514 460.765 1502.69 284.879 1452.64 279.46C1402.59 274.042 1331.4 404.884 1280.69 401.181C1229.99 397.478 1255.34 277.401 1209.25 261.686C1163.17 245.972 1109.72 330.68 1059.49 325.752C1009.25 320.823 1020.91 236.339 968.125 238.029C915.344 239.719 858.918 332.174 806.137 333.864C753.356 335.554 763.123 255.973 714.775 246.142C666.427 236.31 623.828 292.828 574.065 286.674C524.302 280.52 527.939 216.872 475.913 216.601C423.886 216.33 371.931 297.165 324.338 285.373C276.744 273.581 263.479 186.118 247.463 159.998" stroke="url(#paint7_linear_115_4)" stroke-width="6.69459" stroke-linecap="round"/>
<path d="M1494.77 568.195C1468.12 502.607 1484.99 259.527 1437.41 252.957C1389.83 246.387 1301.02 426.58 1252.54 422.369C1204.06 418.157 1246.88 253.463 1204.69 232.741C1162.51 212.02 1097.91 328.802 1050.07 322.906C1002.23 317.01 1026.38 201.239 975.067 204.44C923.756 207.641 855.089 335.07 803.778 338.271C752.467 341.472 774.042 232.44 728.774 219.805C683.507 207.17 633.691 285.204 586.494 277.623C539.298 270.042 552.514 182.911 502.232 183.416C451.95 183.922 389.378 295.381 345.139 280.05C300.901 264.72 301.397 145.293 289.886 109.83" stroke="url(#paint8_linear_115_4)" stroke-width="6.69459" stroke-linecap="round"/>
<path d="M1455.93 569.107C1424.81 515.388 1455.2 291.442 1410.32 282.902C1365.45 274.363 1271.75 440.018 1225.9 433.66C1180.04 427.302 1229.23 274.01 1190.22 252.384C1151.2 230.758 1083.78 337.771 1038.62 329.855C993.465 321.94 1022.39 213.891 973.462 214.388C924.535 214.885 852.701 331.745 803.775 332.242C754.848 332.739 780.98 230.922 738.614 216.774C696.249 202.627 644.879 273.806 600.419 264.333C555.96 254.859 573.018 173.296 525.208 171.3C477.398 169.304 412.181 271.394 370.932 254.754C329.683 238.113 336.321 125.452 327.213 91.4256" stroke="url(#paint9_linear_115_4)" stroke-width="6.69459" stroke-linecap="round"/>
<path d="M1408.23 550.459C1388.41 505.07 1424.61 319.062 1382.47 308.837C1340.32 298.611 1242.28 451.884 1199.08 443.689C1155.89 435.493 1211 291.905 1175.14 269.498C1139.28 247.092 1069.39 345.784 1026.95 336.138C984.504 326.493 1017.89 225.015 971.406 223.2C924.921 221.385 850.307 329.241 803.822 327.426C757.337 325.611 787.731 229.933 748.278 214.487C708.826 199.041 656.147 264.381 614.45 253.286C572.753 242.19 593.421 165.364 548.133 161.228C502.845 157.093 435.323 251.203 397.068 233.437C358.812 215.671 371.29 108.761 364.507 75.9514" stroke="url(#paint10_linear_115_4)" stroke-width="6.69459" stroke-linecap="round"/>
<path d="M1361.37 508.677C1359.8 471.859 1393.26 343.636 1353.86 331.952C1314.47 320.267 1212.79 462.381 1172.29 452.59C1131.79 442.799 1192.21 308.002 1159.47 284.955C1126.73 261.908 1054.85 353.109 1015.14 341.965C975.43 330.822 1012.85 235.305 968.869 231.465C924.885 227.626 848 327.376 804.016 323.536C760.032 319.697 794.288 229.59 757.747 213.036C721.207 196.482 667.538 256.572 628.622 244.076C589.706 231.58 613.668 159.058 570.951 153.054C528.234 147.05 458.855 233.977 423.581 215.259C388.308 196.54 406.209 94.8833 401.638 63.2056" stroke="url(#paint11_linear_115_4)" stroke-width="6.69459" stroke-linecap="round"/>
<path d="M1322.71 517.115C1323.27 482.296 1362 362.813 1325.39 349.981C1288.79 337.15 1184.76 466.619 1147 455.525C1109.24 444.43 1173.83 319.976 1144.15 296.725C1114.46 273.475 1041.43 356.258 1004.5 343.923C967.561 331.588 1008.24 243.154 966.853 237.516C925.469 231.879 847.238 322.501 805.854 316.863C764.47 311.226 801.851 227.753 768.209 210.457C734.568 193.16 680.488 247.415 644.375 233.839C608.263 220.264 634.936 152.916 594.869 145.294C554.803 137.672 484.382 216.535 452.058 197.254C419.734 177.973 442.287 82.85 439.716 52.7437" stroke="url(#paint12_linear_115_4)" stroke-width="6.69459" stroke-linecap="round"/>
<path d="M1284.54 523.064C1287.06 490.174 1330.43 378.95 1296.6 365.196C1262.77 351.442 1157.19 469.208 1122.18 457.044C1087.16 444.88 1155.24 330.105 1128.53 306.81C1101.83 283.514 1028.18 358.525 994.013 345.225C959.847 331.926 1003.29 250.137 964.539 242.971C925.793 235.805 846.778 317.995 808.031 310.829C769.285 303.663 809.33 226.419 778.558 208.575C747.785 190.732 693.64 239.617 660.323 225.182C627.006 210.746 656.024 148.268 618.635 139.284C581.246 130.301 510.271 201.723 480.856 182.062C451.441 162.401 478.152 73.4857 477.441 44.913" stroke="url(#paint13_linear_115_4)" stroke-width="6.6946" stroke-linecap="round"/>
<path d="M1247.08 526.586C1251.36 495.604 1298.69 392.337 1267.62 377.87C1236.56 363.402 1130.24 470.158 1097.97 457.142C1065.69 444.127 1136.5 338.574 1112.7 315.395C1088.9 292.216 1015.15 359.936 983.744 345.884C952.333 331.831 998.013 256.394 961.93 247.942C925.848 239.49 846.63 313.765 810.548 305.312C774.465 296.86 816.684 225.571 788.734 207.37C760.785 189.169 706.934 233.037 676.389 217.948C645.843 202.858 676.815 145.051 642.117 134.94C607.419 124.828 536.403 189.271 509.837 169.411C483.272 149.551 513.61 66.6522 514.602 39.6104" stroke="url(#paint14_linear_115_4)" stroke-width="6.6946" stroke-linecap="round"/>
<path d="M1210.52 527.753C1216.38 498.673 1266.96 403.154 1238.62 388.171C1210.28 373.189 1104.07 469.5 1074.51 455.838C1044.95 442.176 1117.72 345.493 1096.73 322.592C1075.74 299.691 1002.43 360.518 973.746 345.913C945.06 331.308 992.444 262.002 959.037 252.487C925.629 242.973 846.798 309.758 813.391 300.244C779.983 290.729 823.87 225.194 798.681 206.818C773.492 188.442 720.296 227.587 692.484 212.039C664.672 196.491 697.193 143.211 665.185 132.188C633.176 121.166 562.633 179.014 538.843 159.129C515.053 139.245 548.462 62.2406 550.993 36.7436" stroke="url(#paint15_linear_115_4)" stroke-width="6.6946" stroke-linecap="round"/>
<path d="M1175.08 526.64C1182.3 499.47 1235.41 411.529 1209.75 396.222C1184.1 380.915 1078.81 467.282 1051.92 453.168C1025.04 439.055 1099.02 350.943 1080.71 328.477C1062.41 306.011 990.083 360.298 964.075 345.332C938.068 330.367 986.614 267.005 955.877 256.642C925.141 246.278 847.278 305.951 816.541 295.588C785.805 285.224 830.848 225.272 808.343 206.897C785.838 188.522 733.649 223.206 708.517 207.388C683.385 191.57 717.045 142.697 687.709 130.97C658.374 119.243 588.812 170.837 567.708 151.098C546.604 131.36 582.514 60.1572 586.41 36.2254" stroke="url(#paint16_linear_115_4)" stroke-width="6.69459" stroke-linecap="round"/>
<path d="M1140.95 523.337C1149.33 498.083 1204.24 417.564 1181.2 402.116C1158.16 386.667 1054.6 463.561 1030.34 449.184C1006.08 434.808 1080.49 354.986 1064.75 333.107C1049.01 311.228 978.176 359.308 954.786 344.166C931.395 329.024 980.561 271.432 952.476 260.424C924.391 249.415 848.063 302.334 819.978 291.325C791.893 280.317 837.582 225.787 817.669 207.583C797.755 189.379 746.915 219.852 724.394 203.944C701.873 188.036 736.26 143.459 709.566 131.226C682.872 118.992 614.785 164.653 596.263 145.224C577.74 125.795 615.576 60.311 620.658 37.9654" stroke="url(#paint17_linear_115_4)" stroke-width="6.69459" stroke-linecap="round"/>
<path d="M1108.31 517.938C1117.64 494.603 1173.63 421.347 1153.12 405.932C1132.61 390.517 1031.57 458.405 1009.87 443.946C988.164 429.486 1062.26 357.673 1048.94 336.526C1035.62 315.379 966.776 357.581 945.926 342.439C925.077 327.297 974.328 275.301 948.858 263.844C923.389 252.387 849.143 298.902 823.673 287.445C798.204 275.988 844.033 226.721 826.606 208.85C809.178 190.978 760.014 217.485 740.02 201.661C720.026 185.836 754.734 145.441 730.633 132.892C706.533 120.343 640.396 160.389 624.337 141.426C608.278 122.462 647.464 62.6084 653.55 41.867" stroke="url(#paint18_linear_115_4)" stroke-width="6.69459" stroke-linecap="round"/>
<path d="M1077.33 510.547C1087.41 489.131 1143.76 422.963 1125.69 407.75C1107.63 392.536 1009.85 451.89 990.615 437.521C971.381 423.151 1044.43 359.055 1033.37 338.775C1022.31 318.496 955.943 355.153 937.543 340.18C919.144 325.208 967.956 278.623 945.051 266.907C922.146 255.191 850.503 295.658 827.598 283.942C804.692 272.226 850.167 228.053 835.106 210.669C820.044 193.284 772.866 216.071 755.301 200.495C737.736 184.92 772.363 148.587 750.793 135.905C729.223 123.224 665.491 157.976 651.764 139.626C638.037 121.276 678 66.9522 684.904 47.8275" stroke="url(#paint19_linear_115_4)" stroke-width="6.69459" stroke-linecap="round"/>
<path d="M1048.19 501.278C1058.79 481.771 1114.8 422.496 1099.07 407.644C1083.34 392.791 989.538 444.099 972.677 429.985C955.817 415.871 1027.1 359.18 1018.14 339.896C1009.18 320.612 945.735 352.063 929.681 337.422C913.627 322.78 961.492 281.409 941.083 269.616C920.675 257.823 852.129 292.609 831.721 280.816C811.313 269.023 855.952 229.762 843.123 213.01C830.295 196.258 785.393 215.576 770.145 200.407C754.898 185.237 789.054 152.834 769.936 140.197C750.818 127.56 689.916 157.345 678.378 139.749C666.84 122.153 707.017 73.2395 714.553 55.7369" stroke="url(#paint20_linear_115_4)" stroke-width="6.69459" stroke-linecap="round"/>
<path d="M1021.03 490.252C1031.94 472.635 1086.94 420.032 1073.42 405.692C1059.9 391.352 970.742 435.122 956.145 421.421C941.547 407.719 1010.38 358.098 1003.35 339.926C996.315 321.755 936.205 348.353 922.379 334.196C908.553 320.038 954.979 283.665 936.985 271.971C918.992 260.277 854.004 289.759 836.01 278.065C818.017 266.371 861.355 231.822 850.616 215.84C839.877 199.858 797.518 215.964 784.464 201.351C771.409 186.737 804.714 158.119 787.956 145.695C771.197 133.271 713.526 158.428 704.022 141.716C694.518 125.004 734.354 81.3603 742.336 65.4772" stroke="url(#paint21_linear_115_4)" stroke-width="6.69459" stroke-linecap="round"/>
<path d="M995.993 477.597C1007.01 461.843 1060.33 415.663 1048.89 401.979C1037.45 388.295 953.559 425.053 941.099 411.914C928.64 398.775 994.381 355.863 989.085 338.91C983.788 321.957 927.405 344.068 915.677 330.539C903.948 317.011 948.463 285.401 932.788 273.974C917.112 262.547 856.109 287.117 840.434 275.69C824.758 264.263 866.349 234.21 857.545 219.125C848.74 204.04 809.168 217.2 798.17 203.282C787.173 189.365 819.262 164.371 804.756 152.321C790.25 140.271 736.176 161.152 728.541 145.444C720.906 129.737 759.864 91.1991 768.106 76.924" stroke="url(#paint22_linear_115_4)" stroke-width="6.69459" stroke-linecap="round"/>
<path d="M973.212 463.451C984.133 449.522 1035.13 409.485 1025.63 396.591C1016.13 383.696 938.071 413.994 927.614 401.557C917.156 389.12 979.186 352.532 975.434 336.893C971.683 321.254 919.38 339.254 909.607 326.49C899.833 313.726 941.991 286.626 928.522 275.626C915.054 264.627 858.426 284.692 844.958 273.693C831.489 262.693 870.91 236.899 863.873 222.829C856.837 208.758 820.273 219.244 811.184 206.153C802.095 193.063 832.62 171.516 820.246 159.994C807.872 148.472 757.732 165.44 751.791 150.846C745.849 136.253 783.408 102.633 791.728 89.9457" stroke="url(#paint23_linear_115_4)" stroke-width="6.69459" stroke-linecap="round"/>
<path d="M952.8 447.955C963.42 435.802 1011.5 401.602 1003.78 389.621C996.06 377.64 924.356 402.05 915.752 390.446C907.149 378.842 964.888 348.162 962.481 333.921C960.074 319.679 912.17 333.961 904.199 322.087C896.227 310.214 935.605 287.349 924.22 276.929C912.834 266.509 860.933 282.491 849.548 272.071C838.162 261.65 875.011 239.862 869.569 226.912C864.127 213.962 830.765 222.054 823.426 209.912C816.087 197.77 844.716 179.479 834.342 168.629C823.968 157.778 778.062 171.209 773.631 157.829C769.201 144.448 804.859 115.534 813.077 104.403" stroke="url(#paint24_linear_115_4)" stroke-width="6.69459" stroke-linecap="round"/>
<path d="M934.86 431.257C944.986 420.822 989.566 392.121 983.464 381.168C977.362 370.214 912.478 389.33 905.57 378.68C898.662 368.03 951.576 342.818 950.307 330.046C949.038 317.273 905.813 328.239 899.48 317.372C893.148 306.505 929.352 287.582 919.912 277.884C910.473 268.186 863.61 280.521 854.171 270.823C844.731 261.126 878.633 243.068 874.603 231.335C870.572 219.602 840.581 225.588 834.824 214.505C829.067 203.421 855.489 188.179 846.97 178.134C838.451 168.09 797.044 178.372 793.934 166.293C790.824 154.213 824.103 129.765 832.042 120.153" stroke="url(#paint25_linear_115_4)" stroke-width="6.6946" stroke-linecap="round"/>
<path d="M919.482 413.514C928.925 404.727 969.468 381.16 964.808 371.337C960.148 361.514 902.493 375.949 897.114 366.363C891.734 356.777 939.327 336.568 938.985 325.323C938.643 314.079 900.34 322.144 895.474 312.389C890.608 302.633 923.271 287.339 915.63 278.497C907.988 269.656 866.435 278.791 858.793 269.949C851.151 261.108 881.758 246.49 878.949 236.058C876.14 225.625 849.66 229.799 845.309 219.874C840.957 209.949 864.881 197.532 858.061 188.42C851.242 179.307 814.563 186.838 812.576 176.135C810.59 165.432 841.036 145.189 848.525 137.045" stroke="url(#paint26_linear_115_4)" stroke-width="6.69459" stroke-linecap="round"/>
<path d="M906.741 394.881C915.32 387.663 951.322 368.837 947.922 360.237C944.522 351.636 894.449 362.02 890.42 353.598C886.392 345.176 928.214 329.481 928.585 319.81C928.955 310.139 895.778 315.728 892.199 307.179C888.619 298.629 917.406 286.633 911.402 278.772C905.399 270.91 869.385 277.304 863.381 269.442C857.378 261.581 884.369 250.094 882.585 241.035C880.801 231.976 857.948 234.635 854.818 225.958C851.687 217.281 872.843 207.451 867.557 199.385C862.272 191.32 830.514 196.506 829.448 187.243C828.382 177.98 855.568 161.656 862.441 154.923" stroke="url(#paint27_linear_115_4)" stroke-width="6.69459" stroke-linecap="round"/>
<path d="M896.701 375.523C904.244 369.785 935.236 355.281 932.907 347.983C930.578 340.686 888.382 347.664 885.52 340.494C882.659 333.324 918.306 321.631 919.171 313.568C920.036 305.504 892.152 309.05 889.671 301.788C887.189 294.527 911.795 285.483 907.26 278.714C902.725 271.946 872.439 276.068 867.904 269.299C863.369 262.531 886.454 253.851 885.493 246.225C884.533 238.599 865.395 240.047 863.294 232.695C861.193 225.342 879.334 217.849 875.408 210.934C871.481 204.019 844.8 207.277 844.447 199.505C844.095 191.733 867.62 179.02 873.718 173.629" stroke="url(#paint28_linear_115_4)" stroke-width="6.69459" stroke-linecap="round"/>
<path d="M889.414 355.605C895.756 351.249 921.307 340.622 919.854 334.696C918.4 328.77 884.322 333.001 882.436 327.161C880.55 321.32 909.662 313.097 910.801 306.661C911.94 300.224 889.48 302.165 887.903 296.263C886.325 290.362 906.474 283.906 903.23 278.333C899.986 272.76 875.575 275.086 872.331 269.513C869.087 263.94 888.001 257.727 887.658 251.582C887.315 245.437 871.955 245.98 870.686 240.017C869.418 234.055 884.319 228.633 881.569 222.963C878.818 217.292 857.334 219.041 857.485 212.799C857.636 206.557 877.126 197.125 882.294 193" stroke="url(#paint29_linear_115_4)" stroke-width="6.69459" stroke-linecap="round"/>
<path d="M884.922 335.296C889.905 332.213 909.619 324.997 908.84 320.499C908.062 316.001 882.291 318.153 881.184 313.706C880.077 309.26 902.334 303.958 903.525 299.155C904.717 294.351 887.777 295.133 886.904 290.65C886.032 286.166 901.476 281.922 899.337 277.636C897.197 273.349 878.774 274.361 876.635 270.074C874.495 265.787 889.001 261.689 889.067 257.06C889.133 252.431 877.588 252.375 876.95 247.856C876.312 243.336 887.768 239.711 886.004 235.366C884.24 231.021 868.041 231.688 868.482 227.001C868.923 222.314 884.03 215.813 888.121 212.868" stroke="url(#paint30_linear_115_4)" stroke-width="6.69459" stroke-linecap="round"/>
<path d="M883.261 314.767C886.735 312.841 900.243 308.548 899.934 305.522C899.625 302.497 882.31 303.245 881.779 300.245C881.249 297.245 896.365 294.298 897.387 291.121C898.409 287.944 887.057 288.013 886.685 284.995C886.313 281.977 896.829 279.554 895.601 276.633C894.374 273.713 882.02 273.896 880.792 270.975C879.565 268.054 889.447 265.704 889.709 262.614C889.97 259.523 882.262 259.177 882.048 256.141C881.834 253.104 889.657 250.989 888.683 248.039C887.709 245.089 876.857 245.102 877.372 241.982C877.887 238.863 888.284 234.924 891.155 233.066" stroke="url(#paint31_linear_115_4)" stroke-width="6.69459" stroke-linecap="round"/>
<path d="M884.487 294.194C886.296 293.298 893.219 291.417 893.171 289.895C893.124 288.373 884.419 288.402 884.259 286.889C884.1 285.375 891.781 284.201 892.406 282.629C893.031 281.058 887.338 280.866 887.259 279.346C887.18 277.827 892.536 276.823 892.024 275.336C891.513 273.848 885.315 273.693 884.803 272.205C884.291 270.717 889.328 269.737 889.568 268.194C889.809 266.651 885.958 266.323 885.958 264.798C885.959 263.273 889.955 262.369 889.571 260.872C889.188 259.375 883.748 259.164 884.117 257.611C884.486 256.059 889.836 254.293 891.341 253.42" stroke="url(#paint32_linear_115_4)" stroke-width="6.69459" stroke-linecap="round"/>
</g>
<defs>
<linearGradient id="paint0_linear_115_4" x1="873.748" y1="176.244" x2="901.998" y2="371.485" gradientUnits="userSpaceOnUse">
<stop offset="0.45" stop-color="#00AFEF"/>
<stop offset="1" stop-color="#FEC158"/>
</linearGradient>
<linearGradient id="paint1_linear_115_4" x1="881.058" y1="179.135" x2="900.789" y2="367.896" gradientUnits="userSpaceOnUse">
<stop offset="0.45" stop-color="#00AFEF"/>
<stop offset="1" stop-color="#FEC158"/>
</linearGradient>
<linearGradient id="paint2_linear_115_4" x1="888.025" y1="183.357" x2="899.986" y2="365.825" gradientUnits="userSpaceOnUse">
<stop offset="0.45" stop-color="#00AFEF"/>
<stop offset="1" stop-color="#FEC158"/>
</linearGradient>
<linearGradient id="paint3_linear_115_4" x1="894.706" y1="189.205" x2="899.658" y2="366.066" gradientUnits="userSpaceOnUse">
<stop offset="0.45" stop-color="#00AFEF"/>
<stop offset="1" stop-color="#FEC158"/>
</linearGradient>
<linearGradient id="paint4_linear_115_4" x1="900.792" y1="195.89" x2="899.114" y2="364.894" gradientUnits="userSpaceOnUse">
<stop offset="0.45" stop-color="#00AFEF"/>
<stop offset="1" stop-color="#FEC158"/>
</linearGradient>
<linearGradient id="paint5_linear_115_4" x1="906.867" y1="202.873" x2="899.359" y2="366.23" gradientUnits="userSpaceOnUse">
<stop offset="0.45" stop-color="#00AFEF"/>
<stop offset="1" stop-color="#FEC158"/>
</linearGradient>
<linearGradient id="paint6_linear_115_4" x1="911.265" y1="207.179" x2="898.126" y2="361.163" gradientUnits="userSpaceOnUse">
<stop offset="0.45" stop-color="#00AFEF"/>
<stop offset="1" stop-color="#FEC158"/>
</linearGradient>
<linearGradient id="paint7_linear_115_4" x1="915.202" y1="212.991" x2="897.45" y2="356.537" gradientUnits="userSpaceOnUse">
<stop offset="0.45" stop-color="#00AFEF"/>
<stop offset="1" stop-color="#22DAE5"/>
</linearGradient>
<linearGradient id="paint8_linear_115_4" x1="927.691" y1="171.078" x2="895.913" y2="368.917" gradientUnits="userSpaceOnUse">
<stop offset="0.45" stop-color="#00AFEF"/>
<stop offset="1" stop-color="#FEC158"/>
</linearGradient>
<linearGradient id="paint9_linear_115_4" x1="930.163" y1="180.58" x2="890.676" y2="365.886" gradientUnits="userSpaceOnUse">
<stop offset="0.45" stop-color="#00AFEF"/>
<stop offset="1" stop-color="#FEC158"/>
</linearGradient>
<linearGradient id="paint10_linear_115_4" x1="932.145" y1="188.999" x2="885.627" y2="363.811" gradientUnits="userSpaceOnUse">
<stop offset="0.45" stop-color="#00AFEF"/>
<stop offset="1" stop-color="#FEC158"/>
</linearGradient>
<linearGradient id="paint11_linear_115_4" x1="933.575" y1="196.988" x2="880.481" y2="362.332" gradientUnits="userSpaceOnUse">
<stop offset="0.45" stop-color="#00AFEF"/>
<stop offset="1" stop-color="#FEC158"/>
</linearGradient>
<linearGradient id="paint12_linear_115_4" x1="935.381" y1="203.361" x2="877.432" y2="357.509" gradientUnits="userSpaceOnUse">
<stop offset="0.45" stop-color="#00AFEF"/>
<stop offset="1" stop-color="#FEC158"/>
</linearGradient>
<linearGradient id="paint13_linear_115_4" x1="936.776" y1="209.288" x2="874.525" y2="352.964" gradientUnits="userSpaceOnUse">
<stop offset="0.45" stop-color="#00AFEF"/>
<stop offset="1" stop-color="#FEC158"/>
</linearGradient>
<linearGradient id="paint14_linear_115_4" x1="937.737" y1="214.897" x2="871.728" y2="348.516" gradientUnits="userSpaceOnUse">
<stop offset="0.45" stop-color="#00AFEF"/>
<stop offset="1" stop-color="#FEC158"/>
</linearGradient>
<linearGradient id="paint15_linear_115_4" x1="938.255" y1="220.252" x2="869.049" y2="344.047" gradientUnits="userSpaceOnUse">
<stop offset="0.45" stop-color="#00AFEF"/>
<stop offset="1" stop-color="#FEC158"/>
</linearGradient>
<linearGradient id="paint16_linear_115_4" x1="938.331" y1="225.384" x2="866.518" y2="339.482" gradientUnits="userSpaceOnUse">
<stop offset="0.45" stop-color="#00AFEF"/>
<stop offset="1" stop-color="#FEC158"/>
</linearGradient>
<linearGradient id="paint17_linear_115_4" x1="937.971" y1="230.309" x2="864.182" y2="334.776" gradientUnits="userSpaceOnUse">
<stop offset="0.45" stop-color="#00AFEF"/>
<stop offset="1" stop-color="#FEC158"/>
</linearGradient>
<linearGradient id="paint18_linear_115_4" x1="937.187" y1="235.026" x2="862.096" y2="329.904" gradientUnits="userSpaceOnUse">
<stop offset="0.45" stop-color="#00AFEF"/>
<stop offset="1" stop-color="#FEC158"/>
</linearGradient>
<linearGradient id="paint19_linear_115_4" x1="935.991" y1="239.531" x2="860.323" y2="324.863" gradientUnits="userSpaceOnUse">
<stop offset="0.45" stop-color="#00AFEF"/>
<stop offset="1" stop-color="#FEC158"/>
</linearGradient>
<linearGradient id="paint20_linear_115_4" x1="934.401" y1="243.814" x2="858.931" y2="319.673" gradientUnits="userSpaceOnUse">
<stop offset="0.45" stop-color="#00AFEF"/>
<stop offset="1" stop-color="#FEC158"/>
</linearGradient>
<linearGradient id="paint21_linear_115_4" x1="932.436" y1="247.864" x2="857.988" y2="314.368" gradientUnits="userSpaceOnUse">
<stop offset="0.45" stop-color="#00AFEF"/>
<stop offset="1" stop-color="#FEC158"/>
</linearGradient>
<linearGradient id="paint22_linear_115_4" x1="930.118" y1="251.668" x2="857.556" y2="309.007" gradientUnits="userSpaceOnUse">
<stop offset="0.45" stop-color="#00AFEF"/>
<stop offset="1" stop-color="#FEC158"/>
</linearGradient>
<linearGradient id="paint23_linear_115_4" x1="927.472" y1="255.212" x2="857.691" y2="303.662" gradientUnits="userSpaceOnUse">
<stop offset="0.45" stop-color="#00AFEF"/>
<stop offset="1" stop-color="#FEC158"/>
</linearGradient>
<linearGradient id="paint24_linear_115_4" x1="924.52" y1="258.482" x2="858.431" y2="298.426" gradientUnits="userSpaceOnUse">
<stop offset="0.45" stop-color="#00AFEF"/>
<stop offset="1" stop-color="#FEC158"/>
</linearGradient>
<linearGradient id="paint25_linear_115_4" x1="921.292" y1="261.465" x2="859.802" y2="293.403" gradientUnits="userSpaceOnUse">
<stop offset="0.45" stop-color="#00AFEF"/>
<stop offset="1" stop-color="#FEC158"/>
</linearGradient>
<linearGradient id="paint26_linear_115_4" x1="917.812" y1="264.151" x2="861.804" y2="288.708" gradientUnits="userSpaceOnUse">
<stop offset="0.45" stop-color="#00AFEF"/>
<stop offset="1" stop-color="#FEC158"/>
</linearGradient>
<linearGradient id="paint27_linear_115_4" x1="914.111" y1="266.524" x2="864.413" y2="284.456" gradientUnits="userSpaceOnUse">
<stop offset="0.45" stop-color="#00AFEF"/>
<stop offset="1" stop-color="#FEC158"/>
</linearGradient>
<linearGradient id="paint28_linear_115_4" x1="910.215" y1="268.578" x2="867.579" y2="280.763" gradientUnits="userSpaceOnUse">
<stop offset="0.45" stop-color="#00AFEF"/>
<stop offset="1" stop-color="#FEC158"/>
</linearGradient>
<linearGradient id="paint29_linear_115_4" x1="906.153" y1="270.302" x2="871.23" y2="277.733" gradientUnits="userSpaceOnUse">
<stop offset="0.45" stop-color="#00AFEF"/>
<stop offset="1" stop-color="#FEC158"/>
</linearGradient>
<linearGradient id="paint30_linear_115_4" x1="901.95" y1="271.688" x2="875.269" y2="275.455" gradientUnits="userSpaceOnUse">
<stop offset="0.45" stop-color="#00AFEF"/>
<stop offset="1" stop-color="#FEC158"/>
</linearGradient>
<linearGradient id="paint31_linear_115_4" x1="897.626" y1="272.73" x2="879.59" y2="273.999" gradientUnits="userSpaceOnUse">
<stop offset="0.45" stop-color="#00AFEF"/>
<stop offset="1" stop-color="#FEC158"/>
</linearGradient>
<linearGradient id="paint32_linear_115_4" x1="893.178" y1="273.42" x2="884.093" y2="273.417" gradientUnits="userSpaceOnUse">
<stop offset="0.45" stop-color="#00AFEF"/>
<stop offset="1" stop-color="#FEC158"/>
</linearGradient>
</defs>
</svg>
